<?xml version="1.0" encoding="UTF-8" standalone="no"?>
<!DOCTYPE svg PUBLIC "-//W3C//DTD SVG 1.1//EN"
 "http://www.w3.org/Graphics/SVG/1.1/DTD/svg11.dtd">
<!-- Generated by graphviz version 2.38.0 (20140413.2041)
 -->
<!-- Title: %3 Pages: 1 -->
<svg width="465pt" height="332pt"
 viewBox="0.00 0.00 465.43 332.00" xmlns="http://www.w3.org/2000/svg" xmlns:xlink="http://www.w3.org/1999/xlink">
<g id="graph0" class="graph" transform="scale(1 1) rotate(0) translate(4 328)">
<title>%3</title>
<polygon fill="white" stroke="none" points="-4,4 -4,-328 461.432,-328 461.432,4 -4,4"/>
<!-- commands -->
<g id="node1" class="node"><title>commands</title>
<ellipse fill="none" stroke="black" cx="225.543" cy="-306" rx="93.6835" ry="18"/>
<text text-anchor="middle" x="225.543" y="-302.3" font-family="Times New Roman,serif" font-size="14.00">ZeroInstall.Commands</text>
</g>
<!-- services -->
<g id="node3" class="node"><title>services</title>
<ellipse fill="none" stroke="black" cx="82.5427" cy="-234" rx="82.5854" ry="18"/>
<text text-anchor="middle" x="82.5427" y="-230.3" font-family="Times New Roman,serif" font-size="14.00">ZeroInstall.Services</text>
</g>
<!-- commands&#45;&gt;services -->
<g id="edge1" class="edge"><title>commands&#45;&gt;services</title>
<path fill="none" stroke="black" d="M193.094,-289.116C172.616,-279.092 145.974,-266.05 123.975,-255.282"/>
<polygon fill="black" stroke="black" points="125.384,-252.074 114.863,-250.821 122.306,-258.361 125.384,-252.074"/>
</g>
<!-- desktop_integration -->
<g id="node4" class="node"><title>desktop_integration</title>
<ellipse fill="none" stroke="black" cx="336.543" cy="-162" rx="120.779" ry="18"/>
<text text-anchor="middle" x="336.543" y="-158.3" font-family="Times New Roman,serif" font-size="14.00">ZeroInstall.DesktopIntegration</text>
</g>
<!-- commands&#45;&gt;desktop_integration -->
<g id="edge2" class="edge"><title>commands&#45;&gt;desktop_integration</title>
<path fill="none" stroke="black" d="M289.939,-292.848C312.707,-285.118 336,-272.516 349.543,-252 361.647,-233.662 356.518,-208.595 349.443,-189.736"/>
<polygon fill="black" stroke="black" points="352.576,-188.155 345.528,-180.244 346.105,-190.823 352.576,-188.155"/>
</g>
<!-- publish -->
<g id="node2" class="node"><title>publish</title>
<ellipse fill="none" stroke="black" cx="261.543" cy="-234" rx="78.7863" ry="18"/>
<text text-anchor="middle" x="261.543" y="-230.3" font-family="Times New Roman,serif" font-size="14.00">ZeroInstall.Publish</text>
</g>
<!-- publish&#45;&gt;desktop_integration -->
<g id="edge3" class="edge"><title>publish&#45;&gt;desktop_integration</title>
<path fill="none" stroke="black" d="M279.317,-216.411C288.706,-207.648 300.401,-196.732 310.767,-187.057"/>
<polygon fill="black" stroke="black" points="313.453,-189.338 318.375,-179.956 308.677,-184.221 313.453,-189.338"/>
</g>
<!-- archives -->
<g id="node5" class="node"><title>archives</title>
<ellipse fill="none" stroke="black" cx="113.543" cy="-162" rx="83.6854" ry="18"/>
<text text-anchor="middle" x="113.543" y="-158.3" font-family="Times New Roman,serif" font-size="14.00">ZeroInstall.Archives</text>
</g>
<!-- publish&#45;&gt;archives -->
<g id="edge4" class="edge"><title>publish&#45;&gt;archives</title>
<path fill="none" stroke="black" d="M228.697,-217.465C207.215,-207.305 178.95,-193.936 155.799,-182.986"/>
<polygon fill="black" stroke="black" points="157.089,-179.724 146.552,-178.613 154.096,-186.052 157.089,-179.724"/>
</g>
<!-- services&#45;&gt;archives -->
<g id="edge5" class="edge"><title>services&#45;&gt;archives</title>
<path fill="none" stroke="black" d="M90.0469,-216.055C93.5736,-208.091 97.8608,-198.411 101.803,-189.51"/>
<polygon fill="black" stroke="black" points="105.043,-190.836 105.892,-180.275 98.6426,-188.002 105.043,-190.836"/>
</g>
<!-- store -->
<g id="node6" class="node"><title>store</title>
<ellipse fill="none" stroke="black" cx="224.543" cy="-90" rx="71.4873" ry="18"/>
<text text-anchor="middle" x="224.543" y="-86.3" font-family="Times New Roman,serif" font-size="14.00">ZeroInstall.Store</text>
</g>
<!-- desktop_integration&#45;&gt;store -->
<g id="edge7" class="edge"><title>desktop_integration&#45;&gt;store</title>
<path fill="none" stroke="black" d="M310,-144.411C294.718,-134.859 275.344,-122.751 258.908,-112.478"/>
<polygon fill="black" stroke="black" points="260.459,-109.32 250.124,-106.988 256.749,-115.256 260.459,-109.32"/>
</g>
<!-- archives&#45;&gt;store -->
<g id="edge6" class="edge"><title>archives&#45;&gt;store</title>
<path fill="none" stroke="black" d="M139.287,-144.765C154.526,-135.155 174.013,-122.865 190.509,-112.462"/>
<polygon fill="black" stroke="black" points="192.729,-115.201 199.32,-106.906 188.995,-109.28 192.729,-115.201"/>
</g>
<!-- model -->
<g id="node7" class="node"><title>model</title>
<ellipse fill="none" stroke="black" cx="224.543" cy="-18" rx="75.2868" ry="18"/>
<text text-anchor="middle" x="224.543" y="-14.3" font-family="Times New Roman,serif" font-size="14.00">ZeroInstall.Model</text>
</g>
<!-- store&#45;&gt;model -->
<g id="edge8" class="edge"><title>store&#45;&gt;model</title>
<path fill="none" stroke="black" d="M224.543,-71.6966C224.543,-63.9827 224.543,-54.7125 224.543,-46.1124"/>
<polygon fill="black" stroke="black" points="228.043,-46.1043 224.543,-36.1043 221.043,-46.1044 228.043,-46.1043"/>
</g>
</g>
</svg>
