<?xml version="1.0" encoding="UTF-8" standalone="no"?>
<!DOCTYPE svg PUBLIC "-//W3C//DTD SVG 1.1//EN"
 "http://www.w3.org/Graphics/SVG/1.1/DTD/svg11.dtd">
<!-- Generated by graphviz version 2.38.0 (20140413.2041)
 -->
<!-- Title: %3 Pages: 1 -->
<svg width="432pt" height="260pt"
 viewBox="0.00 0.00 432.43 260.00" xmlns="http://www.w3.org/2000/svg" xmlns:xlink="http://www.w3.org/1999/xlink">
<g id="graph0" class="graph" transform="scale(1 1) rotate(0) translate(4 256)">
<title>%3</title>
<polygon fill="white" stroke="none" points="-4,4 -4,-256 428.432,-256 428.432,4 -4,4"/>
<!-- commands -->
<g id="node1" class="node"><title>commands</title>
<ellipse fill="none" stroke="black" cx="97.5427" cy="-234" rx="93.6835" ry="18"/>
<text text-anchor="middle" x="97.5427" y="-230.3" font-family="Times New Roman,serif" font-size="14.00">ZeroInstall.Commands</text>
</g>
<!-- services -->
<g id="node3" class="node"><title>services</title>
<ellipse fill="none" stroke="black" cx="82.5427" cy="-162" rx="82.5854" ry="18"/>
<text text-anchor="middle" x="82.5427" y="-158.3" font-family="Times New Roman,serif" font-size="14.00">ZeroInstall.Services</text>
</g>
<!-- commands&#45;&gt;services -->
<g id="edge1" class="edge"><title>commands&#45;&gt;services</title>
<path fill="none" stroke="black" d="M93.8348,-215.697C92.1818,-207.983 90.1953,-198.712 88.3525,-190.112"/>
<polygon fill="black" stroke="black" points="91.7256,-189.149 86.2079,-180.104 84.8809,-190.616 91.7256,-189.149"/>
</g>
<!-- desktop_integration -->
<g id="node4" class="node"><title>desktop_integration</title>
<ellipse fill="none" stroke="black" cx="303.543" cy="-162" rx="120.779" ry="18"/>
<text text-anchor="middle" x="303.543" y="-158.3" font-family="Times New Roman,serif" font-size="14.00">ZeroInstall.DesktopIntegration</text>
</g>
<!-- commands&#45;&gt;desktop_integration -->
<g id="edge2" class="edge"><title>commands&#45;&gt;desktop_integration</title>
<path fill="none" stroke="black" d="M141.482,-218.069C172.456,-207.544 214.192,-193.362 247.552,-182.026"/>
<polygon fill="black" stroke="black" points="248.826,-185.29 257.168,-178.758 246.573,-178.662 248.826,-185.29"/>
</g>
<!-- publish -->
<g id="node2" class="node"><title>publish</title>
<ellipse fill="none" stroke="black" cx="303.543" cy="-234" rx="78.7863" ry="18"/>
<text text-anchor="middle" x="303.543" y="-230.3" font-family="Times New Roman,serif" font-size="14.00">ZeroInstall.Publish</text>
</g>
<!-- publish&#45;&gt;desktop_integration -->
<g id="edge3" class="edge"><title>publish&#45;&gt;desktop_integration</title>
<path fill="none" stroke="black" d="M303.543,-215.697C303.543,-207.983 303.543,-198.712 303.543,-190.112"/>
<polygon fill="black" stroke="black" points="307.043,-190.104 303.543,-180.104 300.043,-190.104 307.043,-190.104"/>
</g>
<!-- store -->
<g id="node5" class="node"><title>store</title>
<ellipse fill="none" stroke="black" cx="192.543" cy="-90" rx="71.4873" ry="18"/>
<text text-anchor="middle" x="192.543" y="-86.3" font-family="Times New Roman,serif" font-size="14.00">ZeroInstall.Store</text>
</g>
<!-- services&#45;&gt;store -->
<g id="edge4" class="edge"><title>services&#45;&gt;store</title>
<path fill="none" stroke="black" d="M108.055,-144.765C123.157,-135.155 142.468,-122.865 158.816,-112.462"/>
<polygon fill="black" stroke="black" points="160.99,-115.228 167.548,-106.906 157.232,-109.322 160.99,-115.228"/>
</g>
<!-- desktop_integration&#45;&gt;store -->
<g id="edge5" class="edge"><title>desktop_integration&#45;&gt;store</title>
<path fill="none" stroke="black" d="M277.237,-144.411C262.091,-134.859 242.89,-122.751 226.601,-112.478"/>
<polygon fill="black" stroke="black" points="228.221,-109.362 217.895,-106.988 224.487,-115.283 228.221,-109.362"/>
</g>
<!-- model -->
<g id="node6" class="node"><title>model</title>
<ellipse fill="none" stroke="black" cx="192.543" cy="-18" rx="75.2868" ry="18"/>
<text text-anchor="middle" x="192.543" y="-14.3" font-family="Times New Roman,serif" font-size="14.00">ZeroInstall.Model</text>
</g>
<!-- store&#45;&gt;model -->
<g id="edge6" class="edge"><title>store&#45;&gt;model</title>
<path fill="none" stroke="black" d="M192.543,-71.6966C192.543,-63.9827 192.543,-54.7125 192.543,-46.1124"/>
<polygon fill="black" stroke="black" points="196.043,-46.1043 192.543,-36.1043 189.043,-46.1044 196.043,-46.1043"/>
</g>
</g>
</svg>
