<?xml version="1.0" encoding="UTF-8" standalone="no"?>
<!DOCTYPE svg PUBLIC "-//W3C//DTD SVG 1.1//EN"
 "http://www.w3.org/Graphics/SVG/1.1/DTD/svg11.dtd">
<!-- Generated by graphviz version 2.38.0 (20140413.2041)
 -->
<!-- Title: %3 Pages: 1 -->
<svg width="434pt" height="332pt"
 viewBox="0.00 0.00 434.13 332.00" xmlns="http://www.w3.org/2000/svg" xmlns:xlink="http://www.w3.org/1999/xlink">
<g id="graph0" class="graph" transform="scale(1 1) rotate(0) translate(4 328)">
<title>%3</title>
<polygon fill="white" stroke="none" points="-4,4 -4,-328 430.129,-328 430.129,4 -4,4"/>
<!-- commands -->
<g id="node1" class="node"><title>commands</title>
<ellipse fill="none" stroke="black" cx="99.2393" cy="-306" rx="93.6835" ry="18"/>
<text text-anchor="middle" x="99.2393" y="-302.3" font-family="Times New Roman,serif" font-size="14.00">ZeroInstall.Commands</text>
</g>
<!-- services -->
<g id="node3" class="node"><title>services</title>
<ellipse fill="none" stroke="black" cx="84.2393" cy="-234" rx="82.5854" ry="18"/>
<text text-anchor="middle" x="84.2393" y="-230.3" font-family="Times New Roman,serif" font-size="14.00">ZeroInstall.Services</text>
</g>
<!-- commands&#45;&gt;services -->
<g id="edge1" class="edge"><title>commands&#45;&gt;services</title>
<path fill="none" stroke="black" d="M95.5315,-287.697C93.8785,-279.983 91.892,-270.712 90.0491,-262.112"/>
<polygon fill="black" stroke="black" points="93.4222,-261.149 87.9045,-252.104 86.5776,-262.616 93.4222,-261.149"/>
</g>
<!-- desktop_integration -->
<g id="node5" class="node"><title>desktop_integration</title>
<ellipse fill="none" stroke="black" cx="305.239" cy="-234" rx="120.779" ry="18"/>
<text text-anchor="middle" x="305.239" y="-230.3" font-family="Times New Roman,serif" font-size="14.00">ZeroInstall.DesktopIntegration</text>
</g>
<!-- commands&#45;&gt;desktop_integration -->
<g id="edge2" class="edge"><title>commands&#45;&gt;desktop_integration</title>
<path fill="none" stroke="black" d="M143.179,-290.069C174.153,-279.544 215.889,-265.362 249.249,-254.026"/>
<polygon fill="black" stroke="black" points="250.522,-257.29 258.864,-250.758 248.27,-250.662 250.522,-257.29"/>
</g>
<!-- publish -->
<g id="node2" class="node"><title>publish</title>
<ellipse fill="none" stroke="black" cx="305.239" cy="-306" rx="78.7863" ry="18"/>
<text text-anchor="middle" x="305.239" y="-302.3" font-family="Times New Roman,serif" font-size="14.00">ZeroInstall.Publish</text>
</g>
<!-- publish&#45;&gt;desktop_integration -->
<g id="edge3" class="edge"><title>publish&#45;&gt;desktop_integration</title>
<path fill="none" stroke="black" d="M305.239,-287.697C305.239,-279.983 305.239,-270.712 305.239,-262.112"/>
<polygon fill="black" stroke="black" points="308.739,-262.104 305.239,-252.104 301.739,-262.104 308.739,-262.104"/>
</g>
<!-- services_interfaces -->
<g id="node4" class="node"><title>services_interfaces</title>
<ellipse fill="none" stroke="black" cx="120.239" cy="-162" rx="120.479" ry="18"/>
<text text-anchor="middle" x="120.239" y="-158.3" font-family="Times New Roman,serif" font-size="14.00">ZeroInstall.Services.Interfaces</text>
</g>
<!-- services&#45;&gt;services_interfaces -->
<g id="edge4" class="edge"><title>services&#45;&gt;services_interfaces</title>
<path fill="none" stroke="black" d="M92.9539,-216.055C97.093,-208.007 102.134,-198.205 106.752,-189.226"/>
<polygon fill="black" stroke="black" points="109.894,-190.769 111.355,-180.275 103.669,-187.567 109.894,-190.769"/>
</g>
<!-- store -->
<g id="node6" class="node"><title>store</title>
<ellipse fill="none" stroke="black" cx="203.239" cy="-90" rx="71.4873" ry="18"/>
<text text-anchor="middle" x="203.239" y="-86.3" font-family="Times New Roman,serif" font-size="14.00">ZeroInstall.Store</text>
</g>
<!-- services_interfaces&#45;&gt;store -->
<g id="edge5" class="edge"><title>services_interfaces&#45;&gt;store</title>
<path fill="none" stroke="black" d="M140.331,-144.055C151.012,-135.047 164.298,-123.842 175.905,-114.053"/>
<polygon fill="black" stroke="black" points="178.231,-116.67 183.619,-107.547 173.718,-111.319 178.231,-116.67"/>
</g>
<!-- desktop_integration&#45;&gt;store -->
<g id="edge6" class="edge"><title>desktop_integration&#45;&gt;store</title>
<path fill="none" stroke="black" d="M295.456,-215.759C284.823,-197.446 266.967,-167.899 249.239,-144 242.015,-134.26 233.454,-124.083 225.689,-115.28"/>
<polygon fill="black" stroke="black" points="228.121,-112.749 218.843,-107.634 222.906,-117.418 228.121,-112.749"/>
</g>
<!-- model -->
<g id="node7" class="node"><title>model</title>
<ellipse fill="none" stroke="black" cx="203.239" cy="-18" rx="75.2868" ry="18"/>
<text text-anchor="middle" x="203.239" y="-14.3" font-family="Times New Roman,serif" font-size="14.00">ZeroInstall.Model</text>
</g>
<!-- store&#45;&gt;model -->
<g id="edge7" class="edge"><title>store&#45;&gt;model</title>
<path fill="none" stroke="black" d="M203.239,-71.6966C203.239,-63.9827 203.239,-54.7125 203.239,-46.1124"/>
<polygon fill="black" stroke="black" points="206.739,-46.1043 203.239,-36.1043 199.739,-46.1044 206.739,-46.1043"/>
</g>
</g>
</svg>
