<?xml version="1.0" encoding="UTF-8" standalone="no"?>
<!DOCTYPE svg PUBLIC "-//W3C//DTD SVG 1.1//EN"
 "http://www.w3.org/Graphics/SVG/1.1/DTD/svg11.dtd">
<!-- Generated by graphviz version 2.38.0 (20140413.2041)
 -->
<!-- Title: %3 Pages: 1 -->
<svg width="435pt" height="332pt"
 viewBox="0.00 0.00 435.48 332.00" xmlns="http://www.w3.org/2000/svg" xmlns:xlink="http://www.w3.org/1999/xlink">
<g id="graph0" class="graph" transform="scale(1 1) rotate(0) translate(4 328)">
<title>%3</title>
<polygon fill="white" stroke="none" points="-4,4 -4,-328 431.481,-328 431.481,4 -4,4"/>
<!-- commands -->
<g id="node1" class="node"><title>commands</title>
<ellipse fill="none" stroke="black" cx="93.5917" cy="-306" rx="93.6835" ry="18"/>
<text text-anchor="middle" x="93.5917" y="-302.3" font-family="Times New Roman,serif" font-size="14.00">ZeroInstall.Commands</text>
</g>
<!-- services -->
<g id="node3" class="node"><title>services</title>
<ellipse fill="none" stroke="black" cx="85.5917" cy="-234" rx="82.5854" ry="18"/>
<text text-anchor="middle" x="85.5917" y="-230.3" font-family="Times New Roman,serif" font-size="14.00">ZeroInstall.Services</text>
</g>
<!-- commands&#45;&gt;services -->
<g id="edge1" class="edge"><title>commands&#45;&gt;services</title>
<path fill="none" stroke="black" d="M91.6142,-287.697C90.7326,-279.983 89.6731,-270.712 88.6903,-262.112"/>
<polygon fill="black" stroke="black" points="92.1594,-261.642 87.5465,-252.104 85.2047,-262.437 92.1594,-261.642"/>
</g>
<!-- desktop_integration -->
<g id="node5" class="node"><title>desktop_integration</title>
<ellipse fill="none" stroke="black" cx="306.592" cy="-234" rx="120.779" ry="18"/>
<text text-anchor="middle" x="306.592" y="-230.3" font-family="Times New Roman,serif" font-size="14.00">ZeroInstall.DesktopIntegration</text>
</g>
<!-- commands&#45;&gt;desktop_integration -->
<g id="edge2" class="edge"><title>commands&#45;&gt;desktop_integration</title>
<path fill="none" stroke="black" d="M138.764,-290.155C171.023,-279.553 214.67,-265.209 249.366,-253.807"/>
<polygon fill="black" stroke="black" points="250.491,-257.121 258.898,-250.674 248.305,-250.471 250.491,-257.121"/>
</g>
<!-- publish -->
<g id="node2" class="node"><title>publish</title>
<ellipse fill="none" stroke="black" cx="298.592" cy="-306" rx="78.7863" ry="18"/>
<text text-anchor="middle" x="298.592" y="-302.3" font-family="Times New Roman,serif" font-size="14.00">ZeroInstall.Publish</text>
</g>
<!-- publish&#45;&gt;services -->
<g id="edge3" class="edge"><title>publish&#45;&gt;services</title>
<path fill="none" stroke="black" d="M255.488,-290.834C221.931,-279.806 175.173,-264.44 139.202,-252.618"/>
<polygon fill="black" stroke="black" points="139.955,-249.182 129.362,-249.385 137.77,-255.832 139.955,-249.182"/>
</g>
<!-- publish&#45;&gt;desktop_integration -->
<g id="edge4" class="edge"><title>publish&#45;&gt;desktop_integration</title>
<path fill="none" stroke="black" d="M300.569,-287.697C301.451,-279.983 302.51,-270.712 303.493,-262.112"/>
<polygon fill="black" stroke="black" points="306.979,-262.437 304.637,-252.104 300.024,-261.642 306.979,-262.437"/>
</g>
<!-- services_interfaces -->
<g id="node4" class="node"><title>services_interfaces</title>
<ellipse fill="none" stroke="black" cx="121.592" cy="-162" rx="120.479" ry="18"/>
<text text-anchor="middle" x="121.592" y="-158.3" font-family="Times New Roman,serif" font-size="14.00">ZeroInstall.Services.Interfaces</text>
</g>
<!-- services&#45;&gt;services_interfaces -->
<g id="edge5" class="edge"><title>services&#45;&gt;services_interfaces</title>
<path fill="none" stroke="black" d="M94.3063,-216.055C98.4454,-208.007 103.486,-198.205 108.104,-189.226"/>
<polygon fill="black" stroke="black" points="111.246,-190.769 112.707,-180.275 105.021,-187.567 111.246,-190.769"/>
</g>
<!-- store -->
<g id="node6" class="node"><title>store</title>
<ellipse fill="none" stroke="black" cx="204.592" cy="-90" rx="71.4873" ry="18"/>
<text text-anchor="middle" x="204.592" y="-86.3" font-family="Times New Roman,serif" font-size="14.00">ZeroInstall.Store</text>
</g>
<!-- services_interfaces&#45;&gt;store -->
<g id="edge6" class="edge"><title>services_interfaces&#45;&gt;store</title>
<path fill="none" stroke="black" d="M141.684,-144.055C152.364,-135.047 165.651,-123.842 177.257,-114.053"/>
<polygon fill="black" stroke="black" points="179.583,-116.67 184.971,-107.547 175.07,-111.319 179.583,-116.67"/>
</g>
<!-- desktop_integration&#45;&gt;store -->
<g id="edge7" class="edge"><title>desktop_integration&#45;&gt;store</title>
<path fill="none" stroke="black" d="M296.809,-215.759C286.175,-197.446 268.32,-167.899 250.592,-144 243.367,-134.26 234.807,-124.083 227.042,-115.28"/>
<polygon fill="black" stroke="black" points="229.473,-112.749 220.195,-107.634 224.259,-117.418 229.473,-112.749"/>
</g>
<!-- model -->
<g id="node7" class="node"><title>model</title>
<ellipse fill="none" stroke="black" cx="204.592" cy="-18" rx="75.2868" ry="18"/>
<text text-anchor="middle" x="204.592" y="-14.3" font-family="Times New Roman,serif" font-size="14.00">ZeroInstall.Model</text>
</g>
<!-- store&#45;&gt;model -->
<g id="edge8" class="edge"><title>store&#45;&gt;model</title>
<path fill="none" stroke="black" d="M204.592,-71.6966C204.592,-63.9827 204.592,-54.7125 204.592,-46.1124"/>
<polygon fill="black" stroke="black" points="208.092,-46.1043 204.592,-36.1043 201.092,-46.1044 208.092,-46.1043"/>
</g>
</g>
</svg>
