<?xml version="1.0" encoding="UTF-8" standalone="no"?>
<!DOCTYPE svg PUBLIC "-//W3C//DTD SVG 1.1//EN"
 "http://www.w3.org/Graphics/SVG/1.1/DTD/svg11.dtd">
<!-- Generated by graphviz version 2.38.0 (20140413.2041)
 -->
<!-- Title: %3 Pages: 1 -->
<svg width="537pt" height="332pt"
 viewBox="0.00 0.00 536.64 332.00" xmlns="http://www.w3.org/2000/svg" xmlns:xlink="http://www.w3.org/1999/xlink">
<g id="graph0" class="graph" transform="scale(1 1) rotate(0) translate(4 328)">
<title>%3</title>
<polygon fill="white" stroke="none" points="-4,4 -4,-328 532.636,-328 532.636,4 -4,4"/>
<!-- commands -->
<g id="node1" class="node"><title>commands</title>
<ellipse fill="none" stroke="black" cx="140.843" cy="-306" rx="93.6835" ry="18"/>
<text text-anchor="middle" x="140.843" y="-302.3" font-family="Times New Roman,serif" font-size="14.00">ZeroInstall.Commands</text>
</g>
<!-- services -->
<g id="node3" class="node"><title>services</title>
<ellipse fill="none" stroke="black" cx="84.8426" cy="-234" rx="82.5854" ry="18"/>
<text text-anchor="middle" x="84.8426" y="-230.3" font-family="Times New Roman,serif" font-size="14.00">ZeroInstall.Services</text>
</g>
<!-- commands&#45;&gt;services -->
<g id="edge1" class="edge"><title>commands&#45;&gt;services</title>
<path fill="none" stroke="black" d="M127.287,-288.055C120.477,-279.543 112.097,-269.068 104.588,-259.681"/>
<polygon fill="black" stroke="black" points="107.254,-257.411 98.2738,-251.789 101.788,-261.784 107.254,-257.411"/>
</g>
<!-- desktop_integration -->
<g id="node4" class="node"><title>desktop_integration</title>
<ellipse fill="none" stroke="black" cx="306.843" cy="-162" rx="120.779" ry="18"/>
<text text-anchor="middle" x="306.843" y="-158.3" font-family="Times New Roman,serif" font-size="14.00">ZeroInstall.DesktopIntegration</text>
</g>
<!-- commands&#45;&gt;desktop_integration -->
<g id="edge2" class="edge"><title>commands&#45;&gt;desktop_integration</title>
<path fill="none" stroke="black" d="M153.286,-287.848C167.652,-268.809 192.683,-237.883 218.843,-216 233.022,-204.138 250.146,-193.193 265.506,-184.367"/>
<polygon fill="black" stroke="black" points="267.304,-187.371 274.31,-179.424 263.877,-181.268 267.304,-187.371"/>
</g>
<!-- publish -->
<g id="node2" class="node"><title>publish</title>
<ellipse fill="none" stroke="black" cx="306.843" cy="-234" rx="78.7863" ry="18"/>
<text text-anchor="middle" x="306.843" y="-230.3" font-family="Times New Roman,serif" font-size="14.00">ZeroInstall.Publish</text>
</g>
<!-- publish&#45;&gt;desktop_integration -->
<g id="edge3" class="edge"><title>publish&#45;&gt;desktop_integration</title>
<path fill="none" stroke="black" d="M306.843,-215.697C306.843,-207.983 306.843,-198.712 306.843,-190.112"/>
<polygon fill="black" stroke="black" points="310.343,-190.104 306.843,-180.104 303.343,-190.104 310.343,-190.104"/>
</g>
<!-- archives -->
<g id="node5" class="node"><title>archives</title>
<ellipse fill="none" stroke="black" cx="83.8426" cy="-162" rx="83.6854" ry="18"/>
<text text-anchor="middle" x="83.8426" y="-158.3" font-family="Times New Roman,serif" font-size="14.00">ZeroInstall.Archives</text>
</g>
<!-- publish&#45;&gt;archives -->
<g id="edge4" class="edge"><title>publish&#45;&gt;archives</title>
<path fill="none" stroke="black" d="M262.518,-219.087C227.072,-207.96 177.186,-192.301 139.13,-180.355"/>
<polygon fill="black" stroke="black" points="139.82,-176.903 129.23,-177.247 137.723,-183.582 139.82,-176.903"/>
</g>
<!-- client -->
<g id="node7" class="node"><title>client</title>
<ellipse fill="none" stroke="black" cx="455.843" cy="-90" rx="72.5877" ry="18"/>
<text text-anchor="middle" x="455.843" y="-86.3" font-family="Times New Roman,serif" font-size="14.00">ZeroInstall.Client</text>
</g>
<!-- publish&#45;&gt;client -->
<g id="edge5" class="edge"><title>publish&#45;&gt;client</title>
<path fill="none" stroke="black" d="M365.668,-221.936C391.033,-214.258 418.928,-201.398 436.843,-180 451.152,-162.907 455.46,-137.621 456.444,-118.365"/>
<polygon fill="black" stroke="black" points="459.949,-118.186 456.691,-108.105 452.951,-118.018 459.949,-118.186"/>
</g>
<!-- services&#45;&gt;archives -->
<g id="edge6" class="edge"><title>services&#45;&gt;archives</title>
<path fill="none" stroke="black" d="M84.5954,-215.697C84.4852,-207.983 84.3527,-198.712 84.2299,-190.112"/>
<polygon fill="black" stroke="black" points="87.7295,-190.053 84.0869,-180.104 80.7302,-190.153 87.7295,-190.053"/>
</g>
<!-- store -->
<g id="node6" class="node"><title>store</title>
<ellipse fill="none" stroke="black" cx="293.843" cy="-90" rx="71.4873" ry="18"/>
<text text-anchor="middle" x="293.843" y="-86.3" font-family="Times New Roman,serif" font-size="14.00">ZeroInstall.Store</text>
</g>
<!-- desktop_integration&#45;&gt;store -->
<g id="edge8" class="edge"><title>desktop_integration&#45;&gt;store</title>
<path fill="none" stroke="black" d="M303.629,-143.697C302.196,-135.983 300.475,-126.712 298.878,-118.112"/>
<polygon fill="black" stroke="black" points="302.286,-117.297 297.019,-108.104 295.404,-118.575 302.286,-117.297"/>
</g>
<!-- archives&#45;&gt;store -->
<g id="edge7" class="edge"><title>archives&#45;&gt;store</title>
<path fill="none" stroke="black" d="M127.355,-146.496C160.957,-135.295 207.533,-119.77 242.878,-107.988"/>
<polygon fill="black" stroke="black" points="244.15,-111.254 252.53,-104.771 241.936,-104.613 244.15,-111.254"/>
</g>
<!-- model -->
<g id="node8" class="node"><title>model</title>
<ellipse fill="none" stroke="black" cx="374.843" cy="-18" rx="75.2868" ry="18"/>
<text text-anchor="middle" x="374.843" y="-14.3" font-family="Times New Roman,serif" font-size="14.00">ZeroInstall.Model</text>
</g>
<!-- store&#45;&gt;model -->
<g id="edge10" class="edge"><title>store&#45;&gt;model</title>
<path fill="none" stroke="black" d="M313.038,-72.411C323.529,-63.3446 336.687,-51.9742 348.162,-42.0572"/>
<polygon fill="black" stroke="black" points="350.507,-44.6568 355.784,-35.4699 345.93,-39.3605 350.507,-44.6568"/>
</g>
<!-- client&#45;&gt;model -->
<g id="edge9" class="edge"><title>client&#45;&gt;model</title>
<path fill="none" stroke="black" d="M436.647,-72.411C426.156,-63.3446 412.998,-51.9742 401.523,-42.0572"/>
<polygon fill="black" stroke="black" points="403.755,-39.3605 393.901,-35.4699 399.178,-44.6568 403.755,-39.3605"/>
</g>
</g>
</svg>
